<svg xmlns="http://www.w3.org/2000/svg" xmlns:xlink="http://www.w3.org/1999/xlink" version="1.0" width="96" height="96">
  <defs/>
  <defs>
    <linearGradient id="g">
      <stop offset="0" stop-color="#9f7043"/>
      <stop offset="1" stop-color="#9f7043" stop-opacity=".5"/>
    </linearGradient>
    <linearGradient x1="45.4" y1="92.5" x2="45.4" y2="7" id="j" gradientUnits="userSpaceOnUse" gradientTransform="scale(1.00587 .99417)">
      <stop offset="0"/>
      <stop offset="1" stop-opacity=".6"/>
    </linearGradient>
    <linearGradient id="a">
      <stop offset="0" stop-color="#fff"/>
      <stop offset="1" stop-color="#fff" stop-opacity="0"/>
    </linearGradient>
    <linearGradient x1="36.4" y1="6" x2="36.4" y2="63.9" id="F" xlink:href="#a" gradientUnits="userSpaceOnUse"/>
    <linearGradient x1="48" y1="20.2" x2="48" y2="138.7" id="K" xlink:href="#a" gradientUnits="userSpaceOnUse"/>
    <linearGradient x1="48" y1="90" x2="48" y2="6" id="q" xlink:href="#b" gradientUnits="userSpaceOnUse"/>
    <linearGradient x1="58.7" y1="122" x2="58.7" y2="5.4" id="b" gradientUnits="userSpaceOnUse" gradientTransform="translate(-1.1 -1.1) scale(1.01724)">
      <stop offset="0" stop-color="#cda060"/>
      <stop offset="1" stop-color="#dbbb8e"/>
    </linearGradient>
    <linearGradient x1="5" y1="64" x2="11.2" y2="64" id="E" xlink:href="#c" gradientUnits="userSpaceOnUse" gradientTransform="translate(1 -15.3)"/>
    <linearGradient id="c">
      <stop offset="0" stop-color="#72401f"/>
      <stop offset="1" stop-color="#72401f" stop-opacity="0"/>
    </linearGradient>
    <linearGradient id="i">
      <stop offset="0" stop-color="#784421"/>
      <stop offset="1" stop-color="#784421" stop-opacity="0"/>
    </linearGradient>
    <linearGradient id="h">
      <stop offset="0" stop-color="#c4875e"/>
      <stop offset="1" stop-color="#c4875e" stop-opacity="0"/>
    </linearGradient>
    <linearGradient x1="45.4" y1="92.5" x2="45.4" y2="7" id="d" gradientUnits="userSpaceOnUse" gradientTransform="matrix(1.00587 0 0 .99417 100 0)">
      <stop offset="0"/>
      <stop offset="1" stop-opacity=".6"/>
    </linearGradient>
    <linearGradient x1="32.3" y1="6.1" x2="32.3" y2="90.2" id="m" xlink:href="#d" gradientUnits="userSpaceOnUse" gradientTransform="matrix(1.0238 0 0 1.0119 -1.1 -98)"/>
    <linearGradient x1="32.3" y1="6.1" x2="32.3" y2="90.2" id="n" xlink:href="#d" gradientUnits="userSpaceOnUse" gradientTransform="matrix(1.0238 0 0 1.0119 -1.1 -98)"/>
    <linearGradient x1="32.3" y1="6.1" x2="32.3" y2="90.2" id="o" xlink:href="#d" gradientUnits="userSpaceOnUse" gradientTransform="matrix(1.0238 0 0 1.0119 -1.1 -98)"/>
    <linearGradient x1="32.3" y1="6.1" x2="32.3" y2="90.2" id="p" xlink:href="#d" gradientUnits="userSpaceOnUse" gradientTransform="translate(0 -97)"/>
    <linearGradient x1="32.3" y1="6.1" x2="32.3" y2="90.2" id="l" xlink:href="#d" gradientUnits="userSpaceOnUse" gradientTransform="matrix(1.0238 0 0 1.0119 -1.1 -98)"/>
    <linearGradient x1="32" y1="80" x2="16" y2="80" id="I" xlink:href="#e" gradientUnits="userSpaceOnUse"/>
    <linearGradient id="e">
      <stop offset="0" stop-color="#fff"/>
      <stop offset="1" stop-color="#fff" stop-opacity="0"/>
    </linearGradient>
    <linearGradient x1="40" y1="88" x2="40" y2="80" id="H" xlink:href="#f" gradientUnits="userSpaceOnUse"/>
    <linearGradient id="f">
      <stop offset="0" stop-color="#fff"/>
      <stop offset=".5" stop-color="#eceadb"/>
      <stop offset="1" stop-color="#d8d3a6"/>
    </linearGradient>
    <linearGradient x1="88" y1="80" x2="88" y2="88" id="G" xlink:href="#g" gradientUnits="userSpaceOnUse"/>
    <linearGradient x1="6" y1="67" x2="24" y2="67" id="r" xlink:href="#h" gradientUnits="userSpaceOnUse" gradientTransform="translate(0 -1)"/>
    <linearGradient x1="6" y1="67" x2="24" y2="67" id="s" xlink:href="#h" gradientUnits="userSpaceOnUse" gradientTransform="translate(0 -2)"/>
    <linearGradient x1="6" y1="67" x2="24" y2="67" id="t" xlink:href="#i" gradientUnits="userSpaceOnUse" gradientTransform="translate(0 1)"/>
    <linearGradient x1="6" y1="67" x2="24" y2="67" id="u" xlink:href="#i" gradientUnits="userSpaceOnUse"/>
    <linearGradient x1="6" y1="67" x2="24" y2="67" id="v" xlink:href="#h" gradientUnits="userSpaceOnUse" gradientTransform="translate(0 -1)"/>
    <linearGradient x1="6" y1="67" x2="24" y2="67" id="w" xlink:href="#h" gradientUnits="userSpaceOnUse" gradientTransform="translate(0 -2)"/>
    <linearGradient x1="6" y1="67" x2="24" y2="67" id="x" xlink:href="#i" gradientUnits="userSpaceOnUse" gradientTransform="translate(0 1)"/>
    <linearGradient x1="6" y1="67" x2="24" y2="67" id="y" xlink:href="#i" gradientUnits="userSpaceOnUse"/>
    <linearGradient x1="6" y1="67" x2="24" y2="67" id="z" xlink:href="#h" gradientUnits="userSpaceOnUse" gradientTransform="translate(0 -1)"/>
    <linearGradient x1="6" y1="67" x2="24" y2="67" id="A" xlink:href="#h" gradientUnits="userSpaceOnUse" gradientTransform="translate(0 -2)"/>
    <linearGradient x1="6" y1="67" x2="24" y2="67" id="B" xlink:href="#i" gradientUnits="userSpaceOnUse" gradientTransform="translate(0 1)"/>
    <linearGradient x1="6" y1="67" x2="24" y2="67" id="C" xlink:href="#i" gradientUnits="userSpaceOnUse"/>
    <filter color-interpolation-filters="sRGB" id="k">
      <feGaussianBlur stdDeviation="1.7"/>
    </filter>
    <filter x="-.2" y="-.2" width="1.4" height="1.4" color-interpolation-filters="sRGB" id="L">
      <feGaussianBlur stdDeviation="5.3"/>
    </filter>
    <radialGradient cx="48" cy="90.2" r="42" fx="48" fy="90.2" id="D" xlink:href="#a" gradientUnits="userSpaceOnUse" gradientTransform="matrix(1.15731 0 0 .9959 -7.6 .2)"/>
    <clipPath id="J">
      <rect width="84" height="84" rx="6" ry="6" x="6" y="6" fill="#fff"/>
    </clipPath>
  </defs>
  <g transform="scale(1 -1)">
    <path d="M12-95A10 10 0 002-85v71A10 10 0 0012-4h72a10 10 0 0010-10v-71a10 10 0 00-10-10H12z" opacity=".1" fill="url(#l)"/>
    <path d="M12-94c-5 0-9 4-9 9v71c0 5 4 9 9 9h72c5 0 9-4 9-9v-71c0-5-4-9-9-9H12z" opacity=".1" fill="url(#m)"/>
    <path d="M12-93a8 8 0 00-8 8v71a8 8 0 008 8h72a8 8 0 008-8v-71a8 8 0 00-8-8H12z" opacity=".2" fill="url(#n)"/>
    <rect width="86" height="85" rx="7" ry="7" x="5" y="-92" opacity=".3" fill="url(#o)"/>
    <rect width="84" height="84" rx="6" ry="6" x="6" y="-91" opacity=".5" fill="url(#p)"/>
  </g>
  <rect width="74.1" height="84" rx="6" ry="6" x="15.9" y="6" fill="url(#q)"/>
  <path d="M12 6a6 6 0 00-6 6v72a6 6 0 006 6h12V6H12z" fill="#a05a2c"/>
  <g color="#000">
    <path d="M11 63a5 5 0 00-5 5v1a5 5 0 015-5h13v-1H11z" style="marker:none" opacity=".5" fill="url(#r)" overflow="visible" enable-background="accumulate"/>
    <path d="M11 62a5 5 0 00-5 5v1a5 5 0 015-5h13v-1H11z" style="marker:none" opacity=".2" fill="url(#s)" overflow="visible" enable-background="accumulate"/>
    <path d="M11 65a5 5 0 00-5 5v1a5 5 0 015-5h13v-1H11z" style="marker:none" opacity=".3" fill="url(#t)" overflow="visible" enable-background="accumulate"/>
    <path d="M11 64a5 5 0 00-5 5v1a5 5 0 015-5h13v-1H11z" style="marker:none" opacity=".6" fill="url(#u)" overflow="visible" enable-background="accumulate"/>
  </g>
  <g color="#000">
    <path d="M11 63a5 5 0 00-5 5v1a5 5 0 015-5h13v-1H11z" style="marker:none" opacity=".5" fill="url(#v)" overflow="visible" enable-background="accumulate" transform="translate(0 -20)"/>
    <path d="M11 62a5 5 0 00-5 5v1a5 5 0 015-5h13v-1H11z" style="marker:none" opacity=".2" fill="url(#w)" overflow="visible" enable-background="accumulate" transform="translate(0 -20)"/>
    <path d="M11 65a5 5 0 00-5 5v1a5 5 0 015-5h13v-1H11z" style="marker:none" opacity=".3" fill="url(#x)" overflow="visible" enable-background="accumulate" transform="translate(0 -20)"/>
    <path d="M11 64a5 5 0 00-5 5v1a5 5 0 015-5h13v-1H11z" style="marker:none" opacity=".6" fill="url(#y)" overflow="visible" enable-background="accumulate" transform="translate(0 -20)"/>
  </g>
  <g color="#000">
    <path d="M11 63a5 5 0 00-5 5v1a5 5 0 015-5h13v-1H11z" style="marker:none" opacity=".5" fill="url(#z)" overflow="visible" enable-background="accumulate" transform="translate(0 -40)"/>
    <path d="M11 62a5 5 0 00-5 5v1a5 5 0 015-5h13v-1H11z" style="marker:none" opacity=".2" fill="url(#A)" overflow="visible" enable-background="accumulate" transform="translate(0 -40)"/>
    <path d="M11 65a5 5 0 00-5 5v1a5 5 0 015-5h13v-1H11z" style="marker:none" opacity=".3" fill="url(#B)" overflow="visible" enable-background="accumulate" transform="translate(0 -40)"/>
    <path d="M11 64a5 5 0 00-5 5v1a5 5 0 015-5h13v-1H11z" style="marker:none" opacity=".6" fill="url(#C)" overflow="visible" enable-background="accumulate" transform="translate(0 -40)"/>
  </g>
  <path d="M12 90a6 6 0 01-6-6V12v-1l.3-.8a6.2 6.2 0 01.4-1 6 6 0 011-1.4 6.1 6.1 0 012.5-1.5l-.8.4L9 7l-.3.3a5 5 0 00-.9 1l-.2.4-.3.6v.3L7 10 7 11v72a5 5 0 005 5h72a5 5 0 005-5V11a5.1 5.1 0 00-.3-1.7l-.2-.6-.2-.2-.1-.3a5 5 0 00-.8-.9l-.5-.4-.3-.2-.8-.4 1 .4a6.1 6.1 0 012.9 3.4l.2 1 .1.9v72a6 6 0 01-6 6H12z" opacity=".2" fill="url(#D)"/>
  <path d="M12 6a6 6 0 00-6 6v72a6 6 0 006 6h9.1V6H12z" fill="url(#E)"/>
  <path d="M12 6a6 6 0 00-6 6v73l.3.8a6.2 6.2 0 00.4 1 6 6 0 001 1.4 6.1 6.1 0 002.5 1.5l-.8-.4L9 89l-.3-.3a5 5 0 01-.9-1l-.2-.4-.3-.6v-.3L7 86 7 85V13a5 5 0 015-5h72a5 5 0 015 5v72a5.1 5.1 0 01-.3 1.7l-.2.5-.2.3-.1.3a5 5 0 01-.8.9l-.5.4-.3.2-.8.4 1-.4a6.1 6.1 0 002.9-3.4l.2-1 .1-.9V12a6 6 0 00-6-6H12z" opacity=".4" fill="url(#F)"/>
  <path opacity=".1" fill="#fff" d="M24 6h1v84h-1z"/>
  <path opacity=".1" d="M23 6h1v84h-1z"/>
  <path d="M28 10v6.2h5.1v4.1h-1.5v-2.6H28v3.6h2.5v43.4H28v3.6h3.6v-2.6H33v4.1H28V76h6.1v-5.2h4.2v1.6h-2.7V76h3.7v-2.5h35.4V76h3.7v-3.6h-2.7v-1.6h4.2V76H86v-6.2h-5.1v-4.1h1.6v2.6H86v-3.6h-2.5V21.3H86v-3.6h-3.5v2.6h-1.6v-4.1H86V10h-6.1v5.2h-4.2v-1.6h2.7V10h-3.7v2.5H39.3V10h-3.7v3.6h2.7v1.6h-4.2V10h-5.6zm1 1h4v4.2h-4zm7.6 0h1.7v1.6h-1.7zm39.1 0h1.7v1.6h-1.7zm5.2 0H85v4.2h-4zm-41.6 2.6h35.4v1.6h-2.6v3.6h3.6v-2.6h4.2v4.1h-2.6V24h3.6v-2.5h1.6v43.3h-1.6V62h-3.6v3.6h2.6v4.1h-4.2v-2.6h-3.6v3.6h2.6v1.6H39.3v-1.6h2.6v-3.6h-3.6v2.6h-4.2v-4.1h2.6V62h-3.6v2.5h-1.5V21.4H33V24h3.6v-3.6h-2.6v-4.1h4.2v2.6h3.6v-3.6h-2.6zm0 2.6h1.6v1.6h-1.6zm33.8 0h1.6v1.6h-1.6zM29 18.7h1.6v1.6H29zm54.5 0H85v1.6h-1.5zM34 21.3h1.6V23h-1.6zm44.2 0h1.6V23h-1.6zM34 63.1h1.6v1.6h-1.6zm44.2 0h1.6v1.6h-1.6zM29 65.7h1.6v1.6H29zm54.5 0H85v1.6h-1.5zm-44.2 2.5h1.6v1.6h-1.6zm33.8 0h1.6v1.6h-1.6zM29 70.8h4V75h-4zm52 0h4V75h-4zm-44.4 2.6h1.7V75h-1.7zm39.1 0h1.7V75h-1.7z" opacity=".6" fill="#784421" fill-rule="evenodd"/>
  <path d="M45.6 25.7h-1L39 39.8c-.5 1.3-.6 1.5-1 1.9-.3.4-1 .7-1.6.7h-.1v1.1h6.4v-1.1h-.5c-1.3 0-2-.5-2-1.4l.2-1 .8-2.1h6.5L49 41l.2.7c0 .4-.6.6-1.5.6h-1v1.1h7.5v-1.1h-.4c-1.2 0-1.5-.2-2-1.5l-6.2-15.2m-1.2 4l2.8 6.9h-5.5l2.7-7m14-3.9L54 26v1h.9c.9 0 1 .2 1 1.2v9.4c0 3.3 0 4.8-.4 6.3h1l1.1-2c1 1.4 2.1 2 3.6 2 3 0 5.2-2.6 5.2-6 0-3.6-2-6-4.9-6-1.5 0-2.4.5-3.3 1.9v-8.1m2.9 7.4c1.8 0 2.8 1.8 2.8 5 0 3-1 4.8-2.8 4.8-1.9 0-3-1.8-3-4.8 0-3.2 1-5 3-5M76.8 40c-.8 1.7-1.6 2.4-2.9 2.4-1.9 0-3.1-1.7-3.1-4.6 0-2.9 1.2-4.9 3-4.9.7 0 1.3.4 1.3.8l-.1.3c-.4.4-.5.7-.5 1 0 .9.6 1.4 1.4 1.4.9 0 1.5-.7 1.5-1.6 0-1.6-1.6-3-3.8-3-3.1 0-5.4 2.7-5.4 6.3 0 3.4 2.1 5.8 5.1 5.8 2.2 0 3.4-1 4.4-3.6l-1-.3" style="text-align:start;line-height:100%;-inkscape-font-specification:Century Schoolbook L" font-size="36" font-weight="400" fill="#784421" font-family="Century Schoolbook L"/>
  <path d="M44.3 47.4h-.1l-.2.2a.9.9 0 00-.6-.2 1 1 0 00-.7.2c-.4.3-.5.7-.5 1.1 0 .4 0 .7.3 1 .2.2.5.3.9.3.2 0 .5 0 .7-.3l.1.3h.2v-.8-.2h.3v-.2h-1v.2c.3 0 .3 0 .3.2v.4l-.6.3a.7.7 0 01-.6-.3l-.2-.9c0-.7.3-1.2.8-1.2.4 0 .7.3.8.9h.2v-1m1 1H45v.1c.2 0 .2 0 .2.2v1c0 .1 0 .2-.2.2h.8c-.2 0-.2 0-.2-.2v-.5-.4c.1-.2.3-.3.4-.3l.3.1v1.1c0 .1 0 .2-.2.2h.9c-.3 0-.3 0-.3-.2V49l-.1-.5-.5-.2c-.2 0-.4 0-.5.3v-.3m2.3 0c-.4 0-.8.4-.8.9 0 .4.4.8.8.8s.8-.4.8-.8c0-.5-.4-1-.8-1m0 .2c.3 0 .4.3.4.8 0 .4-.1.7-.4.7-.3 0-.4-.3-.4-.7 0-.5.1-.8.4-.8m1.6 0h-.6v.1h.1c.1 0 .2 0 .2.2v1c0 .1 0 .2-.3.2h.9c-.3 0-.3 0-.3-.2V49c0-.3.2-.5.4-.5l.2.1.1.3v.8c0 .1 0 .2-.3.2h1-.1c-.2 0-.3 0-.3-.2V49c0-.4.2-.6.4-.6s.3 0 .3.2v1c0 .1 0 .2-.2.2h.9c-.3 0-.3 0-.3-.2v-.8l-.1-.4a.5.5 0 00-.5-.2c-.2 0-.4 0-.5.3 0-.2-.3-.3-.5-.3s-.4 0-.5.3v-.3m4 .9c0-.5-.2-1-.7-1-.4 0-.7.5-.7 1s.3.8.8.8c.3 0 .5-.1.7-.5h-.1c-.2.2-.3.3-.6.3-.2 0-.3 0-.4-.2v-.4h1m-1-.2v-.3c0-.2.2-.3.3-.3.3 0 .4.2.4.5l-.1.1h-.7m2.8.5v.1c0 .2 0 .2-.3.2h-.1v.2h1.2c.3 0 .5 0 .7-.2.4-.2.6-.6.6-1.1 0-.5-.2-.9-.5-1.1l-.9-.2h-1.1v.2c.3 0 .4 0 .4.2v1.7m.6.3c-.2 0-.2 0-.2-.2v-1.8c0-.2 0-.2.2-.2h.1c.7 0 .9.3.9 1.1s-.2 1.1-.8 1.1h-.2m2.4-1.5h-.7v.2h.2l.1.2v1c0 .1 0 .2-.2.2h.9c-.3 0-.3 0-.3-.2v-1.4m-.2-.9a.2.2 0 100 .5.2.2 0 000-.5m2 2c-.2.3-.3.4-.5.4-.3 0-.5-.2-.5-.7 0-.4.2-.7.5-.7l.2.1-.1.2c0 .2 0 .2.2.2.1 0 .2 0 .2-.2s-.2-.4-.5-.4c-.5 0-.8.4-.8.9s.3.8.7.8c.3 0 .5-.1.6-.5m.8-1.2v-.7h-.1c0 .5-.2.7-.5.7v.2h.3v1.3l.4.2h.3c.2-.2.2-.4.2-.6h-.1c0 .3-.1.4-.3.4h-.2v-1.4h.5-.5m1.4 0h-.7v.1h.2c.2 0 .2 0 .2.2v1c0 .1 0 .2-.3.2h1-.1c-.2 0-.3 0-.3-.2v-1.4m-.2-.9a.2.2 0 100 .5.2.2 0 000-.5m1.5.9c-.4 0-.8.4-.8.9 0 .4.4.8.8.8s.7-.4.7-.8c0-.5-.3-1-.7-1m0 .2c.2 0 .4.3.4.8 0 .4-.2.7-.4.7-.3 0-.4-.3-.4-.7 0-.5.1-.8.4-.8m1.6 0h-.6v.1c.2 0 .2 0 .2.2v1c0 .1 0 .2-.2.2h.9c-.3 0-.3 0-.3-.2v-.5-.4c.1-.2.3-.3.4-.3l.3.1v1.1c0 .1 0 .2-.2.2h.9c-.3 0-.3 0-.3-.2V49v-.5l-.6-.2c-.2 0-.4 0-.5.3v-.3m3 .5l-.1-.4a.8.8 0 00-.5-.1c-.4 0-.7.2-.7.4s0 .2.2.2l.2-.1v-.2H67c0-.1.1-.2.3-.2l.3.1v.5a3 3 0 00-.6.1c-.3.1-.4.3-.4.5 0 .3.2.4.5.4.2 0 .5 0 .6-.2l.3.2c.2 0 .3-.1.3-.2h-.1c-.1 0-.2 0-.2-.2v-.8m-.3.5v.3c-.2.2-.3.2-.5.2a.3.3 0 01-.3-.2c0-.2.1-.3.3-.4h.5m1.4-.9h-.6v.2h.1c.1 0 .2 0 .2.2v1c0 .1 0 .2-.3.2h1-.1c-.3 0-.3 0-.3-.2v-.2l.1-.7.4-.4v.2l.1.2.2-.2c0-.2 0-.3-.3-.3-.2 0-.4.2-.5.5v-.5m2 1.2l-.5-.9.2-.1v-.2H70v.2l.3.1.6 1.4-.5.5v-.1l-.2-.2-.2.2c0 .2.1.3.3.3.2 0 .3 0 .5-.3l.3-.7.4-1c.1-.2.2-.2.3-.2v-.2h-.7v.2h.3v.2l-.4.8" style="text-align:start;line-height:100%;-inkscape-font-specification:Century Schoolbook L" font-size="6" font-weight="400" fill="#784421" font-family="Century Schoolbook L"/>
  <path d="M90 76a4 4 0 01-4 4H13a5 5 0 00-1 10h72a6 6 0 006-6z" fill="url(#G)"/>
  <path d="M13 80a4 4 0 00-4 4 4 4 0 004 4h70.3a3 3 0 002.7-3v-5z" style="marker:none" color="#000" fill="url(#H)" overflow="visible" enable-background="accumulate"/>
  <path d="M90 75a4 4 0 01-4 4H12a4 4 0 00-4 4v.5c.3-2 2-3.5 4-3.5h74a4 4 0 004-4v-1z" style="marker:none" opacity=".1" color="#000" overflow="visible" enable-background="accumulate"/>
  <path d="M90 74a4 4 0 01-4 4H12a4 4 0 00-4 4v.5c.3-2 2-3.5 4-3.5h74a4 4 0 004-4v-1z" style="marker:none" opacity=".1" color="#000" fill="url(#I)" overflow="visible" enable-background="accumulate"/>
  <path d="M12 80a4 4 0 00-4 4 4 4 0 004 4h1a4 4 0 01-4-4 4 4 0 014-4h-1z" style="marker:none" opacity=".5" color="#000" overflow="visible" enable-background="accumulate"/>
  <path d="M86 80.2l-74.7.2 74.7.2v-.4zm0 .6L9.6 82l76.4-.2v-1zm0 2l-76.8.3 76.8.1v-.4zM9 84.1l77 1v-.6L9 84zm.2 1v.2h53.2L9.2 85zm76.7.6l-76.1.6h76V86l.1-.4zm-.5 1l-75 .3 74.3.1.5-.1.2-.3z" opacity=".1"/>
  <path d="M86 80v5a3 3 0 01-2.7 3h1a3 3 0 002.7-3v-5h-1z" style="marker:none" opacity=".2" color="#000" overflow="visible" enable-background="accumulate"/>
  <path d="M90 76a4 4 0 01-4 4H13a4 4 0 00-4 4v.5c.3-2 2-3.5 4-3.5h73a4 4 0 004-4z" style="marker:none" opacity=".3" color="#000" overflow="visible" enable-background="accumulate"/>
  <path d="M90 77a4 4 0 01-4 4H13a4 4 0 00-4 4v.5c.3-2 2-3.5 4-3.5h73a4 4 0 004-4z" style="marker:none" opacity=".1" color="#000" overflow="visible" enable-background="accumulate"/>
</svg>
